<?xml version="1.0" encoding="iso-8859-1"?>
<!-- Generator: Adobe Illustrator 26.0.3, SVG Export Plug-In . SVG Version: 6.00 Build 0)  -->
<svg version="1.1" id="Camada_1" xmlns="http://www.w3.org/2000/svg" xmlns:xlink="http://www.w3.org/1999/xlink" x="0px" y="0px"
	 viewBox="0 0 250 50" style="enable-background:new 0 0 250 50;" xml:space="preserve">
<g>
	<path style="fill:#E41F1B;" d="M227.879,4.221c-11.389-0.017-20.601,9.081-20.625,20.371c-0.024,11.303,9.152,20.436,20.54,20.442
		c11.279,0.006,20.419-9.103,20.428-20.357C248.231,13.406,239.114,4.238,227.879,4.221z M227.649,42.882
		c-10.115-0.066-18.254-8.268-18.212-18.353c0.042-10.062,8.277-18.164,18.426-18.128c10.088,0.035,18.263,8.264,18.223,18.342
		C246.047,34.776,237.742,42.947,227.649,42.882z"/>
	<path style="fill:#E41F1B;" d="M238.269,34.302c-4.218-7.538-14.884-8.29-20.1-1.409c-0.435,0.574-0.796,1.207-1.152,1.835
		c-0.285,0.503-0.514,1.09,0.174,1.435c0.607,0.305,0.89-0.203,1.14-0.653c0.108-0.195,0.201-0.398,0.316-0.589
		c4.247-7.081,14.149-6.988,18.297,0.169c0.167,0.288,0.313,0.593,0.518,0.851c0.219,0.276,0.527,0.419,0.883,0.24
		c0.333-0.168,0.486-0.442,0.382-0.973C238.619,34.993,238.458,34.64,238.269,34.302z"/>
	<path style="fill:#E41F1B;" d="M233.474,22.727c1.027-0.022,1.872-1.471,1.918-3.29c0.049-1.933-0.878-3.599-1.983-3.563
		c-1.064,0.035-1.912,1.581-1.904,3.469C231.514,21.283,232.367,22.75,233.474,22.727z"/>
	<path style="fill:#E41F1B;" d="M222.079,22.704c1.11-0.003,1.938-1.486,1.922-3.445c-0.015-1.811-0.838-3.313-1.849-3.375
		c-1.104-0.068-1.979,1.42-1.99,3.386C220.149,21.269,220.952,22.707,222.079,22.704z"/>
</g>
<g>
	<path style="fill:#F39120;" d="M176.878,4.176c-11.395-0.021-20.624,9.064-20.65,20.326c-0.026,11.339,9.082,20.474,20.453,20.512
		c11.285,0.038,20.509-9.036,20.564-20.23C197.302,13.443,188.163,4.197,176.878,4.176z M176.759,42.834
		c-10.074,0.038-18.279-8.134-18.291-18.217c-0.012-10.106,8.111-18.209,18.257-18.214c10.102-0.005,18.374,8.185,18.364,18.183
		C195.08,34.609,186.856,42.796,176.759,42.834z"/>
	<path style="fill:#F39120;" d="M185.681,32.567c-2.635-1.952-5.641-2.818-8.742-2.887c-3.466,0.059-6.521,0.941-9.201,2.934
		c-0.534,0.397-1.458,0.859-0.809,1.694c0.587,0.756,1.173,0.001,1.688-0.374c4.875-3.543,11.37-3.561,16.207-0.046
		c0.552,0.401,1.181,1.248,1.797,0.338C187.189,33.384,186.202,32.953,185.681,32.567z"/>
	<path style="fill:#F39120;" d="M182.402,22.725c1.092,0.037,1.928-1.448,1.929-3.426c0.001-2.034-0.771-3.459-1.876-3.461
		c-1.097-0.002-1.955,1.492-1.965,3.421C180.48,21.194,181.303,22.688,182.402,22.725z"/>
	<path style="fill:#F39120;" d="M171.052,22.698c0.764,0.022,1.165-0.55,1.484-1.153c0.401-0.758,0.458-1.585,0.441-2.424
		c-0.039-1.865-0.866-3.285-1.911-3.275c-1.076,0.01-1.893,1.39-1.936,3.513c-0.073,0.596,0.1,1.403,0.442,2.174
		C169.859,22.178,170.314,22.677,171.052,22.698z"/>
</g>
<g>
	<path style="fill:#47AC38;" d="M21.839,4.141C10.48,4.149,1.338,13.285,1.34,24.624c0.002,11.332,9.153,20.43,20.545,20.425
		c11.338-0.004,20.56-9.196,20.543-20.473C42.411,13.303,33.171,4.132,21.839,4.141z M21.679,42.796
		C11.471,42.599,3.396,34.355,3.596,24.335C3.8,14.134,12.086,6.237,22.376,6.436c10.034,0.194,17.956,8.569,17.753,18.767
		C39.935,34.9,31.458,42.984,21.679,42.796z"/>
	<path style="fill:#47AC38;" d="M32.45,28.237c-0.752-0.371-1.022,0.333-1.341,0.868c-4.461,7.471-13.984,7.472-18.484,0.004
		c-0.353-0.586-0.69-1.317-1.499-0.82c-0.717,0.441-0.265,1.105,0.028,1.619c2.342,4.104,5.901,6.2,9.758,6.392
		c5.375,0.027,9.683-2.513,11.613-6.36C32.815,29.362,33.337,28.675,32.45,28.237z"/>
	<path style="fill:#47AC38;" d="M27.57,22.758c1.118-0.032,1.918-1.476,1.924-3.472c0.006-1.987-0.785-3.43-1.905-3.478
		c-1.111-0.047-2.018,1.451-2.048,3.381C25.512,21.17,26.433,22.791,27.57,22.758z"/>
	<path style="fill:#47AC38;" d="M16.084,22.76c1.157,0.069,2.073-1.468,2.071-3.477c-0.002-2.025-0.901-3.541-2.064-3.477
		c-1.078,0.059-1.918,1.577-1.918,3.468C14.173,21.123,15.036,22.698,16.084,22.76z"/>
</g>
<g>
	<path style="fill:#FFD60F;" d="M125.796,4.157c-11.387-0.027-20.593,9.045-20.638,20.338c-0.045,11.343,9.055,20.497,20.417,20.538
		c11.397,0.041,20.606-9.022,20.644-20.316C146.257,13.397,137.105,4.184,125.796,4.157z M125.672,42.827
		c-9.962,0.103-18.232-8.189-18.227-18.278c0.004-10.02,8.106-18.1,18.173-18.123c10.166-0.023,18.289,8.028,18.312,18.15
		C143.952,34.661,135.888,42.722,125.672,42.827z"/>
	<path style="fill:#FFD60F;" d="M133.273,31.323c-5.059,0.001-10.118,0.002-15.177,0c-0.636,0-1.384,0.027-1.405,0.816
		c-0.027,0.991,0.851,0.832,1.491,0.835c2.446,0.014,4.892,0.006,7.338,0.006c2.557,0,5.115,0.008,7.672-0.006
		c0.64-0.003,1.517,0.157,1.488-0.837C134.657,31.346,133.908,31.323,133.273,31.323z"/>
	<path style="fill:#FFD60F;" d="M119.953,22.748c1.15,0.045,2.017-1.492,1.997-3.538c-0.019-1.954-0.872-3.403-1.984-3.372
		c-1.143,0.032-1.896,1.393-1.898,3.432C118.065,21.207,118.877,22.706,119.953,22.748z"/>
	<path style="fill:#FFD60F;" d="M131.39,22.756c1.076-0.01,1.91-1.516,1.914-3.746c-0.013-0.151,0.007-0.607-0.099-1.031
		c-0.246-0.98-0.541-2.051-1.763-2.117c-1.285-0.069-1.548,1.073-1.861,2.004c-0.154,0.459-0.147,0.984-0.149,1.479
		C129.427,21.303,130.279,22.766,131.39,22.756z"/>
</g>
<g>
	<path style="fill:#9CC422;" d="M74.79,4.162c-11.388-0.053-20.629,9.031-20.672,20.323c-0.043,11.346,9.077,20.512,20.441,20.543
		c11.313,0.031,20.54-9.032,20.59-20.227C95.201,13.431,86.109,4.215,74.79,4.162z M74.626,42.823
		c-10.131-0.025-18.286-8.181-18.265-18.268C56.382,14.466,64.585,6.36,74.726,6.406c10.145,0.046,18.221,8.195,18.167,18.329
		C92.839,34.745,84.657,42.847,74.626,42.823z"/>
	<path style="fill:#9CC422;" d="M82.751,30.44c-5.031,3.573-11.35,3.547-16.343-0.089c-0.521-0.379-1.072-1.09-1.659-0.238
		c-0.558,0.81,0.279,1.194,0.772,1.566c2.667,2.009,5.682,2.991,9.022,2.963c3.439,0.01,6.63-0.974,9.059-2.856
		c0.522-0.405,1.515-0.769,0.934-1.654C83.901,29.163,83.285,30.061,82.751,30.44z"/>
	<path style="fill:#9CC422;" d="M68.884,22.724c1.142,0.042,1.998-1.398,2.012-3.382c0.014-2.05-0.89-3.587-2.06-3.505
		c-1.074,0.076-1.899,1.653-1.852,3.541C67.03,21.229,67.858,22.686,68.884,22.724z"/>
	<path style="fill:#9CC422;" d="M80.299,22.723c1.084,0.006,1.914-1.378,1.958-3.267c0.049-2.06-0.77-3.598-1.928-3.622
		c-1.119-0.023-2.038,1.637-1.989,3.595C78.385,21.259,79.253,22.717,80.299,22.723z"/>
</g>
</svg>
